# xmcd CD database file
#
# Track frame offsets:
#	150
#	20053
#	38382
#	54048
#	76850
#	95747
#	120881
#	143147
#	159529
#	183291
#	199687
#	220398
#
# Disc length: 3156 seconds
#
# Revision: 8
# Processed by: cddbd v1.5.2PL0 Copyright (c) Steve Scherf et al.
# Submitted via: CDex 1.51
#
DISCID=920c520c
DTITLE=JASPA - Save Me
DYEAR=2008
DGENRE=Blues
TTITLE0=JASPA - Save Me
TTITLE1=JASPA - Wise To Your Lies
TTITLE2=JASPA - The Better Side Of You
TTITLE3=JASPA - Will I See You Again
TTITLE4=JASPA - Don't Walk Away
TTITLE5=JASPA - Sleep My Baby
TTITLE6=JASPA - Miles Away
TTITLE7=JASPA - Right Or Wrong
TTITLE8=JASPA - Prison Of My Mind
TTITLE9=JASPA - Don't Stand Behind Me
TTITLE10=JASPA - Rage
TTITLE11=JASPA - Save Me Acoustic
EXTD=YEAR: 2008
EXTT0=
EXTT1=
EXTT2=
EXTT3=
EXTT4=
EXTT5=
EXTT6=
EXTT7=
EXTT8=
EXTT9=
EXTT10=
EXTT11=
PLAYORDER=
